<?xml version="1.0" standalone="no"?><!DOCTYPE svg PUBLIC "-//W3C//DTD SVG 1.1//EN" "http://www.w3.org/Graphics/SVG/1.1/DTD/svg11.dtd"><svg t="1570698277593" class="icon" viewBox="0 0 1024 1024" version="1.1" xmlns="http://www.w3.org/2000/svg" p-id="2773" xmlns:xlink="http://www.w3.org/1999/xlink" width="200" height="200"><defs><style type="text/css"></style></defs><path d="M756.8 358c-27.1 0-52.5-10.5-71.7-29.7-39.5-39.5-39.5-103.9 0-143.4 19.2-19.2 44.6-29.7 71.7-29.7s52.5 10.5 71.7 29.7c19.2 19.2 29.7 44.6 29.7 71.7s-10.5 52.5-29.7 71.7c-19.2 19.2-44.6 29.7-71.7 29.7z m-50.5-151.8c-27.8 27.8-27.8 73.1 0 101 13.5 13.5 31.4 20.9 50.5 20.9s37-7.4 50.5-20.9c13.5-13.5 20.9-31.4 20.9-50.5s-7.4-37-20.9-50.5c-13.5-13.5-31.4-20.9-50.5-20.9s-37 7.4-50.5 20.9zM648.1 514.4c-19.6 0-38-7.6-51.8-21.4l-75.8-75.8c-28.6-28.6-28.6-75 0-103.6 28.6-28.6 75-28.6 103.6 0l75.8 75.8c13.8 13.8 21.4 32.2 21.4 51.8s-7.6 38-21.4 51.8c-13.9 13.8-32.2 21.4-51.8 21.4z m-75.8-192.3c-11.5 0-22.4 4.5-30.6 12.7-16.9 16.9-16.9 44.3 0 61.1l75.8 75.8c8.2 8.2 19 12.7 30.6 12.7 11.5 0 22.4-4.5 30.6-12.7 8.2-8.2 12.7-19 12.7-30.6 0-11.5-4.5-22.4-12.7-30.6l-75.8-75.8c-8.2-8.1-19.1-12.6-30.6-12.6zM354.9 807.6c-19.6 0-38-7.6-51.8-21.4l-75.8-75.8c-23-23-28-58.9-12.3-87.3 3.3-5.9 7.4-11.4 12.3-16.2 9.1-9.1 20.6-15.7 33-19 25.1-6.7 52.2 0.6 70.6 19l75.8 75.8c13.8 13.8 21.4 32.2 21.4 51.8 0 19.6-7.6 38-21.4 51.8-13.8 13.6-32.2 21.3-51.8 21.3zM279 615.3c-3.7 0-7.4 0.5-11 1.4-7.3 1.9-14.1 5.8-19.5 11.2-2.9 2.9-5.3 6.1-7.2 9.6-9.3 16.8-6.3 38 7.2 51.5l75.8 75.8c8.2 8.2 19 12.7 30.6 12.7s22.4-4.5 30.6-12.7c8.2-8.2 12.7-19 12.7-30.6 0-11.5-4.5-22.4-12.7-30.6L309.7 628c-8.2-8.2-19.3-12.7-30.7-12.7zM463.6 651.2c-27.1 0-52.5-10.5-71.7-29.7-39.5-39.5-39.5-103.9 0-143.4 19.2-19.2 44.6-29.7 71.7-29.7s52.5 10.5 71.7 29.7c39.5 39.5 39.5 103.9 0 143.4-19.2 19.2-44.6 29.7-71.7 29.7z m-50.5-151.9c-27.8 27.8-27.8 73.1 0 101 13.5 13.5 31.4 20.9 50.5 20.9s37-7.4 50.5-20.9c27.8-27.8 27.8-73.1 0-101-13.5-13.5-31.4-20.9-50.5-20.9s-37 7.5-50.5 20.9z" fill="#ffcc00" p-id="2774"></path><path d="M186.7 841.7c-3.8 0-7.7-1.5-10.6-4.4-5.9-5.9-5.9-15.4 0-21.2l89.9-89.9c5.9-5.9 15.4-5.9 21.2 0 5.9 5.9 5.9 15.4 0 21.2l-89.9 89.9c-2.9 2.9-6.7 4.4-10.6 4.4zM357.6 670.8c-3.8 0-7.7-1.5-10.6-4.4-5.9-5.9-5.9-15.4 0-21.2l41.4-41.4c5.9-5.9 15.4-5.9 21.2 0 5.9 5.9 5.9 15.4 0 21.2l-41.4 41.4c-2.9 2.9-6.7 4.4-10.6 4.4zM527.3 501.1c-3.8 0-7.7-1.5-10.6-4.4-5.9-5.9-5.9-15.4 0-21.2l40-40c5.9-5.9 15.4-5.9 21.2 0 5.9 5.9 5.9 15.4 0 21.2l-40 40c-2.9 2.9-6.7 4.4-10.6 4.4zM650.7 377.7c-3.8 0-7.7-1.5-10.6-4.4-5.9-5.9-5.9-15.4 0-21.2l40.7-40.7c5.9-5.9 15.4-5.9 21.2 0 5.9 5.9 5.9 15.4 0 21.2l-40.7 40.7c-2.9 3-6.7 4.4-10.6 4.4zM823.6 204.8c-3.8 0-7.7-1.5-10.6-4.4-5.9-5.9-5.9-15.4 0-21.2l26.4-26.4c5.9-5.9 15.4-5.9 21.2 0 5.9 5.9 5.9 15.4 0 21.2l-26.4 26.4c-2.9 3-6.8 4.4-10.6 4.4z" fill="#ffcc00" p-id="2775"></path></svg>